<svg width="100" height="100" viewBox="0 0 100 100" fill="none" xmlns="http://www.w3.org/2000/svg">
<rect width="100" height="100" rx="16" fill="url(#paint0_linear_1398_37)"/>
<circle cx="50.0005" cy="21.7647" r="3.76471" fill="white"/>
<circle cx="50.0005" cy="40.5883" r="3.76471" fill="white"/>
<circle cx="59.4117" cy="40.5883" r="3.76471" fill="white"/>
<circle cx="68.8233" cy="40.5883" r="3.76471" fill="white"/>
<circle cx="31.1763" cy="40.5883" r="3.76471" fill="white"/>
<circle cx="40.5875" cy="40.5883" r="3.76471" fill="white"/>
<circle cx="50.0005" cy="59.4118" r="3.76471" fill="white"/>
<circle cx="59.4117" cy="59.4118" r="3.76471" fill="white"/>
<circle cx="68.8233" cy="59.4118" r="3.76471" fill="white"/>
<circle cx="31.1763" cy="59.4118" r="3.76471" fill="white"/>
<circle cx="40.5875" cy="59.4118" r="3.76471" fill="white"/>
<circle cx="59.4117" cy="68.8235" r="3.76471" fill="white"/>
<circle cx="68.8233" cy="68.8235" r="3.76471" fill="white"/>
<circle cx="31.1763" cy="68.8235" r="3.76471" fill="white"/>
<circle cx="40.5875" cy="68.8235" r="3.76471" fill="white"/>
<circle cx="68.8233" cy="78.2352" r="3.76471" fill="white"/>
<circle cx="31.1763" cy="78.2352" r="3.76471" fill="white"/>
<circle cx="50.0005" cy="50.0001" r="3.76471" fill="white"/>
<circle cx="59.4117" cy="50.0001" r="3.76471" fill="white"/>
<circle cx="78.2349" cy="50.0001" r="3.76471" fill="white"/>
<circle cx="68.8233" cy="50.0001" r="3.76471" fill="white"/>
<circle cx="31.1763" cy="50.0001" r="3.76471" fill="white"/>
<circle cx="21.7647" cy="50.0001" r="3.76471" fill="white"/>
<circle cx="40.5875" cy="50.0001" r="3.76471" fill="white"/>
<circle cx="50.0005" cy="31.1765" r="3.76471" fill="white"/>
<circle cx="59.4117" cy="31.1765" r="3.76471" fill="white"/>
<circle cx="40.5875" cy="31.1765" r="3.76471" fill="white"/>
<defs>
<linearGradient id="paint0_linear_1398_37" x1="50" y1="0" x2="50" y2="100" gradientUnits="userSpaceOnUse">
<stop stop-color="#E46926"/>
<stop offset="1" stop-color="#FF5A00"/>
</linearGradient>
</defs>
</svg>
