<svg width="32" height="32" viewBox="0 0 32 32" fill="none" xmlns="http://www.w3.org/2000/svg">
<circle cx="16.0002" cy="1.88235" r="1.88235" fill="#2D4565"/>
<circle cx="16.0002" cy="11.2941" r="1.88235" fill="#2D4565"/>
<circle cx="20.7059" cy="11.2941" r="1.88235" fill="#2D4565"/>
<circle cx="25.4116" cy="11.2941" r="1.88235" fill="#2D4565"/>
<circle cx="6.5881" cy="11.2941" r="1.88235" fill="#2D4565"/>
<circle cx="11.2938" cy="11.2941" r="1.88235" fill="#2D4565"/>
<circle cx="16.0002" cy="20.7059" r="1.88235" fill="#2D4565"/>
<circle cx="20.7059" cy="20.7059" r="1.88235" fill="#2D4565"/>
<circle cx="25.4116" cy="20.7059" r="1.88235" fill="#2D4565"/>
<circle cx="6.5881" cy="20.7059" r="1.88235" fill="#2D4565"/>
<circle cx="11.2938" cy="20.7059" r="1.88235" fill="#2D4565"/>
<circle cx="20.7059" cy="25.4117" r="1.88235" fill="#2D4565"/>
<circle cx="25.4116" cy="25.4117" r="1.88235" fill="#2D4565"/>
<circle cx="6.5881" cy="25.4117" r="1.88235" fill="#2D4565"/>
<circle cx="11.2938" cy="25.4117" r="1.88235" fill="#2D4565"/>
<circle cx="25.4116" cy="30.1176" r="1.88235" fill="#2D4565"/>
<circle cx="6.5881" cy="30.1176" r="1.88235" fill="#2D4565"/>
<circle cx="16.0002" cy="16" r="1.88235" fill="#2D4565"/>
<circle cx="20.7059" cy="16" r="1.88235" fill="#2D4565"/>
<circle cx="30.1174" cy="16" r="1.88235" fill="#2D4565"/>
<circle cx="25.4116" cy="16" r="1.88235" fill="#2D4565"/>
<circle cx="6.5881" cy="16" r="1.88235" fill="#2D4565"/>
<circle cx="1.88235" cy="16" r="1.88235" fill="#2D4565"/>
<circle cx="11.2938" cy="16" r="1.88235" fill="#2D4565"/>
<circle cx="16.0002" cy="6.58824" r="1.88235" fill="#2D4565"/>
<circle cx="20.7059" cy="6.58824" r="1.88235" fill="#2D4565"/>
<circle cx="11.2938" cy="6.58824" r="1.88235" fill="#2D4565"/>
</svg>
