<svg width="1498" height="723" viewBox="0 0 1498 723" fill="none" xmlns="http://www.w3.org/2000/svg">
<path d="M167.94 26.7516C186.969 26.7516 202.538 29.6348 214.648 35.4012C227.045 40.8792 238.001 47.3664 247.516 54.8626C253.282 59.1874 257.607 59.764 260.49 56.5925C263.662 53.1327 265.824 45.204 266.977 32.8063H276.924C276.348 43.7624 275.915 57.1692 275.627 73.0267C275.339 88.8842 275.194 109.787 275.194 135.736H265.247C263.518 122.762 261.644 111.95 259.625 103.3C257.607 94.3622 254.724 86.7218 250.976 80.3788C247.516 74.0358 242.615 67.9811 236.272 62.2147C228.487 53.5652 219.117 47.2222 208.161 43.1858C197.493 38.861 186.248 36.6986 174.427 36.6986C159.435 36.6986 146.316 40.735 135.072 48.808C124.116 56.5925 114.89 67.4045 107.393 81.2437C100.185 94.7947 94.7074 110.652 90.9593 128.816C87.4995 146.98 85.7695 166.298 85.7695 186.768C85.7695 207.815 87.6436 227.421 91.3917 245.585C95.4282 263.461 101.195 279.174 108.691 292.725C116.475 305.988 125.99 316.367 137.234 323.863C148.767 331.36 162.03 335.108 177.022 335.108C187.69 335.108 198.646 333.089 209.89 329.053C221.135 325.017 230.361 318.818 237.569 310.457C247.083 301.807 253.571 291.572 257.03 279.751C260.49 267.641 263.229 251.64 265.247 231.746H275.194C275.194 258.848 275.339 280.76 275.627 297.482C275.915 313.916 276.348 327.756 276.924 339H266.977C265.824 326.602 263.806 318.818 260.923 315.646C258.328 312.475 253.859 312.907 247.516 316.944C236.848 324.44 225.46 331.071 213.35 336.838C201.529 342.316 186.248 345.055 167.508 345.055C138.099 345.055 112.295 338.856 90.0943 326.458C67.8938 314.06 50.5947 296.185 38.1971 272.831C26.0877 249.477 20.033 221.366 20.033 188.498C20.033 156.206 26.376 127.951 39.062 103.733C51.748 79.5138 69.1913 60.629 91.3917 47.078C113.592 33.5271 139.108 26.7516 167.94 26.7516ZM377.776 0.370518V153.467C384.984 137.322 394.931 125.933 407.617 119.302C420.591 112.67 434.575 109.355 449.567 109.355C461.388 109.355 471.047 110.94 478.543 114.112C486.039 117.283 492.094 121.32 496.707 126.221C501.609 131.699 505.068 138.763 507.087 147.413C509.393 156.062 510.546 167.739 510.546 182.443V298.78C510.546 310.889 512.709 319.106 517.034 323.431C521.647 327.756 529.287 329.918 539.955 329.918V339C534.765 338.712 526.836 338.423 516.169 338.135C505.501 337.558 494.977 337.27 484.598 337.27C474.218 337.27 463.983 337.558 453.892 338.135C443.801 338.423 436.16 338.712 430.971 339V329.918C440.197 329.918 446.684 327.756 450.432 323.431C454.18 319.106 456.054 310.889 456.054 298.78V167.739C456.054 159.955 455.333 153.035 453.892 146.98C452.45 140.637 449.567 135.736 445.242 132.276C441.206 128.528 435.007 126.654 426.646 126.654C417.42 126.654 409.058 129.249 401.562 134.438C394.354 139.34 388.588 146.404 384.263 155.63C379.938 164.568 377.776 174.803 377.776 186.336V298.78C377.776 310.889 379.65 319.106 383.398 323.431C387.435 327.756 393.922 329.918 402.86 329.918V339C397.958 338.712 390.606 338.423 380.803 338.135C371.289 337.558 361.342 337.27 350.962 337.27C340.583 337.27 329.771 337.558 318.527 338.135C307.571 338.423 299.353 338.712 293.875 339V329.918C304.543 329.918 312.039 327.756 316.364 323.431C320.977 319.106 323.284 310.889 323.284 298.78V52.2678C323.284 39.2935 321.121 29.779 316.797 23.7243C312.76 17.3813 305.12 14.2098 293.875 14.2098V5.12778C303.102 5.99272 312.039 6.4252 320.689 6.4252C331.645 6.4252 341.88 5.99272 351.395 5.12778C360.909 3.97451 369.703 2.38875 377.776 0.370518ZM593.393 5.12778C603.772 5.12778 612.278 8.01096 618.909 13.7773C625.54 19.5437 628.856 27.1841 628.856 36.6986C628.856 46.2131 625.54 53.8535 618.909 59.6199C612.278 65.3862 603.772 68.2694 593.393 68.2694C583.013 68.2694 574.508 65.3862 567.877 59.6199C561.245 53.8535 557.93 46.2131 557.93 36.6986C557.93 27.1841 561.245 19.5437 567.877 13.7773C574.508 8.01096 583.013 5.12778 593.393 5.12778ZM623.666 110.652V298.78C623.666 310.889 625.829 319.106 630.153 323.431C634.766 327.756 642.407 329.918 653.075 329.918V339C647.885 338.712 639.956 338.423 629.288 338.135C618.621 337.558 607.809 337.27 596.853 337.27C586.185 337.27 575.373 337.558 564.417 338.135C553.461 338.423 545.244 338.712 539.766 339V329.918C550.433 329.918 557.93 327.756 562.254 323.431C566.867 319.106 569.174 310.889 569.174 298.78V162.982C569.174 149.719 567.012 140.061 562.687 134.006C558.65 127.663 551.01 124.491 539.766 124.491V115.409C548.992 116.274 557.93 116.707 566.579 116.707C577.247 116.707 587.338 116.274 596.853 115.409C606.655 114.256 615.593 112.67 623.666 110.652ZM766.218 109.355C776.886 109.355 786.689 110.652 795.626 113.247C804.853 115.554 812.781 118.869 819.413 123.194C826.332 127.519 831.81 132.997 835.847 139.628C839.883 145.971 841.901 153.035 841.901 160.819C841.901 170.334 839.018 177.974 833.252 183.741C827.486 189.507 820.278 192.39 811.628 192.39C802.69 192.39 795.338 189.795 789.572 184.606C784.094 179.416 781.355 172.496 781.355 163.847C781.355 155.486 783.805 148.566 788.707 143.088C793.608 137.61 799.519 134.006 806.438 132.276C803.843 128.528 799.807 125.501 794.329 123.194C788.851 120.599 782.796 119.302 776.165 119.302C767.515 119.302 759.731 121.608 752.811 126.221C745.892 130.546 739.837 137.177 734.647 146.115C729.746 154.765 725.853 165.577 722.97 178.551C720.375 191.237 719.078 205.941 719.078 222.664C719.078 246.017 721.817 264.47 727.295 278.021C733.061 291.572 740.414 301.23 749.351 306.997C758.289 312.475 767.804 315.214 777.895 315.214C783.95 315.214 790.437 314.06 797.356 311.754C804.276 309.447 811.051 305.555 817.683 300.077C824.602 294.599 830.801 286.814 836.279 276.723L844.496 279.751C841.325 289.842 836.135 299.933 828.927 310.024C822.008 320.115 812.925 328.476 801.681 335.108C790.437 341.739 776.742 345.055 760.596 345.055C742.143 345.055 725.421 340.874 710.428 332.513C695.436 323.863 683.471 310.889 674.533 293.59C665.883 276.291 661.559 254.811 661.559 229.151C661.559 203.779 666.027 182.299 674.965 164.712C683.903 146.836 696.301 133.141 712.158 123.626C728.304 114.112 746.324 109.355 766.218 109.355ZM911.601 342.027C899.204 342.027 888.68 339.721 880.03 335.108C871.381 330.206 864.894 323.719 860.569 315.646C856.244 307.285 854.082 298.059 854.082 287.968C854.082 275.57 856.965 265.479 862.731 257.694C868.498 249.621 875.85 243.278 884.788 238.665C894.014 233.764 903.672 229.727 913.764 226.556C923.855 223.096 933.369 219.925 942.307 217.041C951.245 213.87 958.597 210.266 964.363 206.23C970.13 202.193 973.013 196.859 973.013 190.228V158.657C973.013 149.431 971.571 141.935 968.688 136.168C966.093 130.114 962.057 125.645 956.579 122.762C951.389 119.59 944.758 118.004 936.685 118.004C930.63 118.004 924.287 118.869 917.656 120.599C911.025 122.329 905.547 125.645 901.222 130.546C908.718 132.564 914.484 136.312 918.521 141.79C922.846 147.269 925.008 153.9 925.008 161.684C925.008 170.622 921.981 177.686 915.926 182.876C910.16 187.777 902.807 190.228 893.87 190.228C884.355 190.228 877.147 187.201 872.246 181.146C867.344 175.091 864.894 168.027 864.894 159.955C864.894 151.882 866.912 145.25 870.948 140.061C874.985 134.583 880.607 129.681 887.815 125.356C895.023 120.455 904.249 116.563 915.493 113.679C926.738 110.796 938.991 109.355 952.254 109.355C964.94 109.355 976.184 110.796 985.987 113.679C995.79 116.274 1004.15 121.032 1011.07 127.951C1017.99 134.583 1022.46 142.8 1024.48 152.602C1026.5 162.405 1027.51 174.37 1027.51 188.498V306.997C1027.51 314.205 1028.37 319.394 1030.1 322.566C1031.83 325.449 1034.57 326.891 1038.32 326.891C1041.2 326.891 1043.94 326.17 1046.53 324.728C1049.13 323.287 1052.01 321.268 1055.18 318.674L1059.94 326.026C1053.6 330.927 1046.97 334.819 1040.05 337.703C1033.13 340.586 1024.77 342.027 1014.96 342.027C1004.87 342.027 996.799 340.586 990.744 337.703C984.978 334.819 980.653 330.639 977.77 325.161C975.175 319.683 973.734 313.196 973.445 305.699C966.526 317.232 958.02 326.17 947.929 332.513C937.838 338.856 925.729 342.027 911.601 342.027ZM937.55 317.809C944.469 317.809 950.812 315.935 956.579 312.186C962.633 308.438 968.112 302.816 973.013 295.32V207.959C970.13 212.284 965.949 216.177 960.471 219.636C955.281 223.096 949.659 226.556 943.604 230.016C937.55 233.476 931.783 237.512 926.305 242.125C921.116 246.45 916.647 251.928 912.899 258.559C909.439 264.902 907.709 273.119 907.709 283.21C907.709 294.455 910.448 303.104 915.926 309.159C921.404 314.925 928.612 317.809 937.55 317.809ZM1137.24 420.306C1120.23 420.306 1104.81 418.72 1090.97 415.548C1077.13 412.377 1066.17 407.62 1058.1 401.277C1050.03 395.222 1045.99 387.437 1045.99 377.923C1045.99 368.697 1050.03 360.48 1058.1 353.272C1066.17 346.064 1077.99 340.586 1093.56 336.838L1096.59 343.757C1091.11 346.929 1086.93 351.254 1084.05 356.732C1081.16 362.21 1079.72 367.976 1079.72 374.031C1079.72 386.428 1085.35 395.943 1096.59 402.574C1108.12 409.494 1123.4 412.954 1142.43 412.954C1155.41 412.954 1167.37 411.224 1178.33 407.764C1189.28 404.304 1198.08 398.97 1204.71 391.762C1211.34 384.554 1214.66 375.616 1214.66 364.949C1214.66 356.011 1211.34 348.514 1204.71 342.46C1198.37 336.405 1185.54 333.378 1166.22 333.378H1137.68C1127.01 333.378 1117.2 332.225 1108.27 329.918C1099.62 327.611 1092.7 323.863 1087.51 318.674C1082.32 313.484 1079.72 306.276 1079.72 297.05C1079.72 285.805 1084.34 275.714 1093.56 266.776C1102.79 257.55 1117.2 248.612 1136.81 239.963L1141.57 243.855C1134.36 247.603 1127.87 251.64 1122.11 255.964C1116.63 260.289 1113.89 265.767 1113.89 272.399C1113.89 281.625 1120.23 286.238 1132.92 286.238H1181.79C1196.78 286.238 1210.04 288.112 1221.58 291.86C1233.4 295.608 1242.77 301.519 1249.69 309.592C1256.61 317.664 1260.07 328.332 1260.07 341.595C1260.07 355.434 1255.6 368.264 1246.66 380.085C1237.72 392.195 1224.17 401.853 1206.01 409.061C1188.13 416.558 1165.21 420.306 1137.24 420.306ZM1141.13 246.882C1125.57 246.882 1111.44 244.576 1098.75 239.963C1086.35 235.061 1076.55 227.565 1069.34 217.474C1062.14 207.095 1058.53 193.976 1058.53 178.119C1058.53 162.261 1062.14 149.287 1069.34 139.196C1076.55 129.105 1086.35 121.608 1098.75 116.707C1111.44 111.805 1125.57 109.355 1141.13 109.355C1156.99 109.355 1171.12 111.805 1183.52 116.707C1195.92 121.608 1205.72 129.105 1212.93 139.196C1220.13 149.287 1223.74 162.261 1223.74 178.119C1223.74 193.976 1220.13 207.095 1212.93 217.474C1205.72 227.565 1195.92 235.061 1183.52 239.963C1171.12 244.576 1156.99 246.882 1141.13 246.882ZM1141.13 239.098C1149.78 239.098 1156.56 234.773 1161.46 226.124C1166.65 217.186 1169.25 201.184 1169.25 178.119C1169.25 155.053 1166.65 139.196 1161.46 130.546C1156.56 121.608 1149.78 117.139 1141.13 117.139C1132.49 117.139 1125.57 121.608 1120.38 130.546C1115.47 139.196 1113.02 155.053 1113.02 178.119C1113.02 201.184 1115.47 217.186 1120.38 226.124C1125.57 234.773 1132.49 239.098 1141.13 239.098ZM1206.44 146.115L1198.22 143.088C1202.55 132.42 1209.61 123.482 1219.41 116.274C1229.22 108.778 1239.6 105.03 1250.55 105.03C1258.91 105.03 1265.4 107.337 1270.01 111.95C1274.91 116.563 1277.37 123.05 1277.37 131.411C1277.37 140.061 1275.06 146.404 1270.45 150.44C1265.83 154.476 1260.79 156.495 1255.31 156.495C1250.41 156.495 1245.94 154.909 1241.9 151.737C1237.87 148.278 1235.56 143.088 1234.98 136.168C1234.41 128.96 1236.71 120.022 1241.9 109.355L1246.23 111.085C1234.98 115.409 1226.62 120.167 1221.14 125.356C1215.67 130.546 1210.76 137.466 1206.44 146.115ZM1377.38 109.355C1397.27 109.355 1414.86 113.391 1430.14 121.464C1445.71 129.249 1457.96 141.791 1466.9 159.09C1476.12 176.389 1480.74 199.166 1480.74 227.421C1480.74 255.676 1476.12 278.453 1466.9 295.752C1457.96 313.051 1445.71 325.593 1430.14 333.378C1414.86 341.162 1397.27 345.055 1377.38 345.055C1357.48 345.055 1339.75 341.162 1324.18 333.378C1308.61 325.593 1296.36 313.051 1287.42 295.752C1278.48 278.453 1274.01 255.676 1274.01 227.421C1274.01 199.166 1278.48 176.389 1287.42 159.09C1296.36 141.791 1308.61 129.249 1324.18 121.464C1339.75 113.391 1357.48 109.355 1377.38 109.355ZM1377.38 118.004C1363.82 118.004 1352.72 126.654 1344.07 143.953C1335.71 160.964 1331.53 188.786 1331.53 227.421C1331.53 266.056 1335.71 293.878 1344.07 310.889C1352.72 327.9 1363.82 336.405 1377.38 336.405C1390.64 336.405 1401.59 327.9 1410.24 310.889C1418.89 293.878 1423.22 266.056 1423.22 227.421C1423.22 188.786 1418.89 160.964 1410.24 143.953C1401.59 126.654 1390.64 118.004 1377.38 118.004Z" fill="#252E37"/>
<path d="M187.858 710L137.032 532.93V677.209C137.032 696.884 148.181 700.163 158.674 701.146V710.328H100.307V701.146C111.128 700.163 122.277 696.884 122.277 677.209V506.697C122.277 487.023 110.8 483.744 99.651 482.76V473.578H162.281L205.237 623.76L244.586 473.578H304.265V482.76C295.084 483.744 284.919 486.367 284.919 506.697V676.881C284.919 696.884 295.084 699.835 304.265 700.819V710H225.895V700.819C235.077 699.835 244.914 696.884 244.914 676.881V528.011L196.712 710H187.858ZM307.322 700.819C316.503 699.835 326.34 696.884 326.34 676.881V506.697C326.34 486.367 316.503 483.416 307.322 482.76V473.578H439.469L440.124 485.711L442.42 531.946L433.566 532.274C429.303 506.369 417.827 488.334 398.152 488.334H366.345V580.804H382.085C402.415 580.804 405.694 569.983 406.35 561.13H415.531V615.563H406.35C405.694 606.381 402.415 595.56 382.085 595.56H366.345V695.244H395.857C418.155 695.244 430.615 670.651 435.862 641.139L445.043 642.451L441.108 698.195L440.452 710H307.322V700.819ZM451.588 710V700.819C460.77 700.163 470.607 696.884 470.607 676.881V506.697C470.607 486.367 460.77 483.744 451.588 482.76V473.578H529.303C572.914 473.578 610.296 521.125 610.296 590.642C610.296 662.781 572.914 710 529.303 710H451.588ZM510.612 695.572H518.809C550.944 695.572 567.34 648.353 567.012 590.642C567.012 534.569 550.944 488.334 518.809 488.334H510.612V695.572ZM612.225 700.819C621.406 699.835 631.899 696.884 631.899 676.881V506.697C631.899 486.367 621.406 483.416 612.225 482.76V473.578H690.267V482.76C681.413 483.416 670.92 486.367 670.92 506.697V676.881C670.92 696.884 681.413 699.835 690.267 700.819V710H612.225V700.819ZM791.993 700.819C801.174 700.163 810.683 696.884 805.437 678.521L791.993 630.318H740.511L726.739 678.521C721.492 697.212 731.002 700.163 740.183 700.819V710H687.718V700.819C695.588 700.491 706.409 696.884 712.311 677.209L770.351 473.578H787.73L847.409 677.209C853.311 696.556 860.853 699.835 868.395 700.819V710H791.993V700.819ZM744.774 615.235H787.73L766.744 539.16L744.774 615.235ZM1006.88 700.819C1016.06 700.163 1025.25 696.884 1025.25 676.881V598.183H969.829V676.881C969.829 697.212 979.666 700.163 988.52 700.819V710H911.133V700.819C920.315 700.163 929.824 697.212 929.824 676.881V506.697C929.824 486.367 920.315 483.416 911.133 482.76V473.578H988.52V482.76C979.666 483.416 969.829 486.367 969.829 506.697V583.428H1025.25V506.697C1025.25 486.367 1015.74 483.416 1006.88 482.76V473.578H1083.94V482.76C1075.42 483.416 1065.58 486.039 1065.58 506.697V676.881C1065.58 697.212 1075.42 700.163 1083.94 700.819V710H1006.88V700.819ZM1167.45 713.935C1135.64 713.935 1101.87 687.046 1101.87 617.858V506.697C1101.87 486.367 1092.03 483.416 1082.85 482.76V473.578H1160.56V482.76C1151.71 483.416 1141.87 486.367 1141.87 506.697V619.825C1141.87 667.372 1154.99 690.653 1176.96 690.653C1198.27 690.653 1214.34 671.635 1214.34 622.776V506.697C1214.34 486.695 1203.52 483.416 1193.68 482.76V473.578H1249.42V482.76C1239.59 483.416 1228.77 486.695 1228.77 506.697V624.416C1228.77 684.751 1201.55 713.935 1167.45 713.935ZM1247.7 710V700.819C1256.88 699.835 1266.72 696.884 1266.72 676.881V506.697C1266.72 486.367 1256.88 483.744 1247.7 482.76V473.578H1334.92C1366.4 473.578 1388.7 499.811 1388.7 534.897C1388.7 563.097 1371.32 579.821 1354.6 588.346C1375.91 596.216 1396.24 613.595 1396.24 646.714C1396.24 687.702 1368.7 710 1337.55 710H1247.7ZM1306.72 695.572H1326.07C1347.06 695.572 1355.91 679.505 1355.91 646.714C1355.91 613.267 1344.76 597.2 1324.76 597.2H1306.72V695.572ZM1306.72 581.46H1324.43C1341.15 581.46 1348.37 562.114 1348.37 534.897C1348.37 505.713 1340.5 487.678 1323.77 487.678H1306.72V581.46Z" fill="#252E37" fill-opacity="0.8"/>
</svg>
